<svg xmlns="http://www.w3.org/2000/svg" viewBox="0 0 512 512" aria-hidden="true">
  <path
    fill="#214f9f"
    fill-opacity="0.1"
    fill-rule="evenodd"
    clip-rule="evenodd"
    d="M66.084,0.5h379.819c36.079,0,65.597,29.505,65.597,65.584v379.819c0,36.079-29.518,65.597-65.597,65.597H66.084 C30.005,511.5,0.5,481.982,0.5,445.903V66.084C0.5,30.005,30.005,0.5,66.084,0.5L66.084,0.5z M372.734,57.264 c-12.65,0-23.005,10.355-23.005,23.005v55.067c0,12.65,10.354,23.005,23.005,23.005h57.762c12.65,0,23.005-10.354,23.005-23.005 V80.269c0-12.65-10.354-23.005-23.005-23.005H372.734L372.734,57.264z M453.738,216.59h-44.975 c4.254,13.897,6.55,28.606,6.55,43.852c0,84.996-71.111,153.898-158.839,153.898c-87.716,0-158.827-68.902-158.827-153.898 c0-15.245,2.295-29.954,6.55-43.852H57.276v215.853c0,11.178,9.132,20.322,20.311,20.322h355.841 c11.166,0,20.311-9.145,20.311-20.322V216.59L453.738,216.59z M256.475,155.447c-56.677,0-102.625,44.525-102.625,99.443 s45.948,99.443,102.625,99.443c56.688,0,102.636-44.525,102.636-99.443S313.163,155.447,256.475,155.447z"
  />
</svg>
